<svg width="18" height="18" viewBox="0 0 18 18" fill="none" xmlns="http://www.w3.org/2000/svg">
<path d="M13.7535 2.4749H11.5879V1.99678C11.5879 1.15303 10.9129 0.478027 10.0691 0.478027H7.90352C7.05977 0.478027 6.38477 1.15303 6.38477 1.99678V2.4749H4.21914C3.40352 2.4749 2.72852 3.1499 2.72852 3.96553V4.80928C2.72852 5.42803 3.09414 5.93428 3.62852 6.15928L4.07852 15.8905C4.13477 16.8187 4.86602 17.5218 5.79414 17.5218H12.1223C13.0504 17.5218 13.8098 16.7905 13.8379 15.8905L14.3441 6.13115C14.8785 5.90615 15.2441 5.37178 15.2441 4.78115V3.9374C15.2441 3.1499 14.5691 2.4749 13.7535 2.4749ZM7.67852 1.99678C7.67852 1.85615 7.79102 1.74365 7.93164 1.74365H10.0973C10.2379 1.74365 10.3504 1.85615 10.3504 1.99678V2.4749H7.70664V1.99678H7.67852ZM4.02227 3.96553C4.02227 3.85303 4.10664 3.74053 4.24727 3.74053H13.7535C13.866 3.74053 13.9785 3.8249 13.9785 3.96553V4.80928C13.9785 4.92178 13.8941 5.03428 13.7535 5.03428H4.24727C4.13477 5.03428 4.02227 4.9499 4.02227 4.80928V3.96553ZM12.1504 16.2562H5.85039C5.59727 16.2562 5.40039 16.0593 5.40039 15.8343L4.95039 6.2999H13.0785L12.6285 15.8343C12.6004 16.0593 12.4035 16.2562 12.1504 16.2562Z" fill="#64748B"/>
<path d="M9.00039 8.74683C8.66289 8.74683 8.35352 9.02808 8.35352 9.3937V13.7531C8.35352 14.0906 8.63477 14.4 9.00039 14.4C9.33789 14.4 9.64727 14.1187 9.64727 13.7531V9.36558C9.64727 9.02808 9.33789 8.74683 9.00039 8.74683Z" fill="#64748B"/>
<path d="M11.6162 9.28124C11.2787 9.25311 10.9693 9.53436 10.9412 9.87186L10.7724 13.1062C10.7443 13.4437 11.0256 13.7531 11.3631 13.7812H11.3912C11.7287 13.7812 12.0099 13.5281 12.0099 13.1906L12.1787 9.95624C12.2349 9.59061 11.9537 9.30936 11.6162 9.28124Z" fill="#64748B"/>
<path d="M6.35624 9.28124C6.01874 9.30936 5.73749 9.59061 5.76561 9.95624L5.96249 13.2187C5.99061 13.5562 6.27186 13.8094 6.58124 13.8094H6.60936C6.94686 13.7812 7.22811 13.5 7.19999 13.1344L7.03124 9.87186C7.00311 9.53436 6.69374 9.25311 6.35624 9.28124Z" fill="#64748B"/>
</svg>
