<svg width="24" height="24" viewBox="0 0 24 24" fill="none" xmlns="http://www.w3.org/2000/svg">
    <g clip-path="url(#clip0_608_18010)">
        <path d="M22.1991 0.0314941H11.2074C10.5205 0.0314941 9.94196 0.610005 9.94196 1.29699V5.8166H1.58971C0.902729 5.8166 0.324219 6.39511 0.324219 7.08209V16.6275C0.324219 17.0976 0.505003 17.6761 0.902729 17.9653L5.63928 22.5934C6.03701 22.9911 6.50705 23.1719 6.97709 23.1719H12.5814C13.2684 23.1719 13.8469 22.5934 13.8469 21.9064V15.362L15.3293 16.8445C15.7271 17.2422 16.1971 17.423 16.6671 17.423H22.2715C22.9584 17.423 23.537 16.8445 23.537 16.1575V1.29699C23.4646 0.610005 22.8861 0.0314941 22.1991 0.0314941ZM3.03599 17.3868H6.10932V20.3878L3.03599 17.3868ZM11.8944 21.2556H8.02564V16.6998C8.02564 16.0128 7.44713 15.4343 6.76015 15.4343H2.24053V7.73291H11.8944V21.2556ZM13.8107 12.7587V12.5779H14.787V13.6265L13.8107 12.7587ZM21.5483 15.4705H16.7033V11.891C16.7033 11.204 16.1248 10.6255 15.4378 10.6255H13.8107V7.04593C13.8107 6.35895 13.2322 5.78044 12.5453 5.78044H11.8944V1.94781H21.5483V15.4705Z" fill="#F2994A"></path>
    </g>
    <defs>
        <clipPath id="clip0_608_18010">
            <rect width="23.1404" height="23.1404" fill="white" transform="translate(0.324219 0.0314941)"></rect>
        </clipPath>
    </defs>
</svg>