<svg width="24" height="25" viewBox="0 0 24 25" fill="none" xmlns="http://www.w3.org/2000/svg">
    <g clip-path="url(#clip0_608_17998)">
        <path d="M23.1754 8.11967C22.8861 7.83042 22.4884 7.64963 22.0184 7.64963H17.6795V6.20336C17.6795 5.9141 17.5711 4.75708 16.0525 4.75708H7.66407C6.21779 4.75708 6.10932 5.9141 6.10932 6.20336V7.64963H1.77049C1.0112 7.64963 0.324219 8.33661 0.324219 9.09591V18.7498C0.324219 19.5091 1.0112 20.1961 1.77049 20.1961H22.0184C22.7777 20.1961 23.4646 19.5091 23.4646 18.7498V9.16822C23.4646 8.80665 23.3562 8.40893 23.1754 8.11967ZM21.5483 18.2436H2.24053V9.56595H6.10932C7.15787 9.56595 8.02564 8.69818 8.02564 7.64963V6.6734H15.7271V7.64963C15.7271 8.69818 16.5948 9.56595 17.6434 9.56595H21.5122V18.2436H21.5483Z" fill="#3056D3"></path>
        <path d="M11.4251 9.56592C9.58109 9.56592 8.0625 11.1207 8.0625 12.9285C8.0625 14.8448 9.50878 16.2911 11.4251 16.2911C13.2691 16.2911 14.7877 14.7364 14.7877 12.9285C14.7877 11.1207 13.2329 9.56592 11.4251 9.56592ZM11.4251 14.4109C10.5573 14.4109 9.97882 13.8324 9.97882 12.9647C9.97882 12.2054 10.6658 11.5184 11.4251 11.5184C12.1844 11.5184 12.8714 12.2054 12.8714 12.9647C12.8714 13.6878 12.1844 14.4109 11.4251 14.4109Z" fill="#3056D3"></path>
        <path d="M4.19303 12.4585C4.73219 12.4585 5.16927 12.0214 5.16927 11.4822C5.16927 10.9431 4.73219 10.506 4.19303 10.506C3.65387 10.506 3.2168 10.9431 3.2168 11.4822C3.2168 12.0214 3.65387 12.4585 4.19303 12.4585Z" fill="#3056D3"></path>
    </g>
    <defs>
        <clipPath id="clip0_608_17998">
            <rect width="23.1404" height="23.1404" fill="white" transform="translate(0.324219 0.924438)"></rect>
        </clipPath>
    </defs>
</svg>