<svg width="14" height="14" viewBox="0 0 14 14" fill="none" xmlns="http://www.w3.org/2000/svg">
<g clip-path="url(#clip0_22_308)">
<path d="M13.3656 6.40937H7.56875V0.590625C7.56875 0.240625 7.32812 0 6.97813 0C6.62812 0 6.3875 0.240625 6.3875 0.590625V6.43125H0.590625C0.240625 6.40937 0 6.65 0 7C0 7.35 0.240625 7.59063 0.590625 7.59063H6.40937V13.4313C6.40937 13.7812 6.65 14.0219 7 14.0219C7.35 14.0219 7.59063 13.7812 7.59063 13.4313V7.56875H13.4094C13.7594 7.56875 14 7.32812 14 6.97813C13.9563 6.65 13.7156 6.40937 13.3656 6.40937Z" />
</g>
<defs>
<clipPath id="clip0_22_308">
<rect width="14" height="14" />
</clipPath>
</defs>
</svg>
