<svg width="18" height="18" viewBox="0 0 18 18" fill="none" xmlns="http://www.w3.org/2000/svg">
<path d="M16.243 11.024C16.3113 10.6923 16.1144 10.3513 15.7686 10.2587C15.4369 10.1904 15.0959 10.3872 15.0032 10.733C14.5962 12.5593 13.4555 14.1273 11.8479 15.0554C8.65718 16.8976 4.58472 15.8064 2.74253 12.6156C0.900341 9.42483 1.99156 5.35236 5.18232 3.51018C7.54494 2.14611 10.4693 2.3738 12.5977 4.03532L11.1858 4.23348C10.8232 4.28044 10.5909 4.60939 10.6482 4.93357C10.666 5.0207 10.6838 5.10784 10.712 5.15655C10.8385 5.37576 11.0728 5.50031 11.3483 5.47117L14.2734 5.08139C14.636 5.03442 14.8683 4.70547 14.811 4.38129L14.4212 1.45617C14.3743 1.09357 14.0453 0.861306 13.7211 0.918566C13.3585 0.965531 13.1263 1.29449 13.1835 1.61866L13.3433 3.02033C10.8193 1.06754 7.35056 0.796926 4.52515 2.42818C0.749819 4.60786 -0.571641 9.46278 1.62211 13.2625C3.81586 17.0622 8.65671 18.3593 12.4564 16.1655C14.3806 15.0546 15.7677 13.182 16.243 11.024Z" fill="#64748B"/>
</svg>
