<svg width="31" height="31" viewBox="0 0 31 31" fill="none" xmlns="http://www.w3.org/2000/svg">
    <path fill-rule="evenodd" clip-rule="evenodd" d="M5.01313 5.3272C4.76381 5.3272 4.52469 5.42625 4.34839 5.60254C4.17209 5.77884 4.07305 6.01796 4.07305 6.26728V23.8154C4.07305 24.0648 4.17209 24.3039 4.34839 24.4802C4.52469 24.6565 4.76381 24.7555 5.01313 24.7555H25.0682C25.3175 24.7555 25.5566 24.6565 25.7329 24.4802C25.9092 24.3039 26.0082 24.0648 26.0082 23.8154V10.0276C26.0082 9.77828 25.9092 9.53916 25.7329 9.36286C25.5566 9.18656 25.3175 9.08752 25.0682 9.08752H13.7872C13.2633 9.08752 12.7741 8.82571 12.4835 8.38983L10.4418 5.3272H5.01313ZM2.13261 3.38676C2.89657 2.62279 3.93272 2.1936 5.01313 2.1936H11.2803C11.8042 2.1936 12.2934 2.45542 12.584 2.8913L14.6257 5.95392H25.0682C26.1486 5.95392 27.1847 6.38311 27.9487 7.14707C28.7126 7.91104 29.1418 8.94719 29.1418 10.0276V23.8154C29.1418 24.8958 28.7126 25.932 27.9487 26.696C27.1847 27.4599 26.1486 27.8891 25.0682 27.8891H5.01313C3.93272 27.8891 2.89657 27.4599 2.13261 26.696C1.36864 25.932 0.939453 24.8958 0.939453 23.8154V6.26728C0.939453 5.18688 1.36864 4.15072 2.13261 3.38676Z" fill="#9B51E0"></path>
</svg>