<svg width="31" height="31" viewBox="0 0 31 31" fill="none" xmlns="http://www.w3.org/2000/svg">
    <path fill-rule="evenodd" clip-rule="evenodd" d="M6.84516 5.3272C6.32597 5.3272 5.90508 5.74809 5.90508 6.26728V23.8154C5.90508 24.3346 6.32597 24.7555 6.84516 24.7555H24.3933C24.9125 24.7555 25.3334 24.3346 25.3334 23.8154V6.26728C25.3334 5.74809 24.9125 5.3272 24.3933 5.3272H6.84516ZM2.77148 6.26728C2.77148 4.01745 4.59533 2.1936 6.84516 2.1936H24.3933C26.6431 2.1936 28.467 4.01745 28.467 6.26728V23.8154C28.467 26.0653 26.6431 27.8891 24.3933 27.8891H6.84516C4.59533 27.8891 2.77148 26.0653 2.77148 23.8154V6.26728Z" fill="#219653"></path>
    <path fill-rule="evenodd" clip-rule="evenodd" d="M11.2323 9.71414C10.7132 9.71414 10.2923 10.135 10.2923 10.6542C10.2923 11.1734 10.7132 11.5943 11.2323 11.5943C11.7515 11.5943 12.1724 11.1734 12.1724 10.6542C12.1724 10.135 11.7515 9.71414 11.2323 9.71414ZM8.41211 10.6542C8.41211 9.09665 9.67477 7.83398 11.2323 7.83398C12.7899 7.83398 14.0526 9.09665 14.0526 10.6542C14.0526 12.2118 12.7899 13.4745 11.2323 13.4745C9.67477 13.4745 8.41211 12.2118 8.41211 10.6542Z" fill="#219653"></path>
    <path fill-rule="evenodd" clip-rule="evenodd" d="M19.528 11.4264C20.1399 10.8146 21.1319 10.8146 21.7438 11.4264L28.011 17.6936C28.6228 18.3055 28.6228 19.2975 28.011 19.9094C27.3991 20.5213 26.4071 20.5213 25.7952 19.9094L20.6359 14.7501L7.95594 27.4301C7.34407 28.0419 6.35203 28.0419 5.74015 27.4301C5.12828 26.8182 5.12828 25.8261 5.74015 25.2143L19.528 11.4264Z" fill="#219653"></path>
</svg>