<svg width="31" height="31" viewBox="0 0 31 31" fill="none" xmlns="http://www.w3.org/2000/svg">
    <path fill-rule="evenodd" clip-rule="evenodd" d="M27.9372 2.56492C28.2886 2.86261 28.4913 3.29985 28.4913 3.76041V20.0551C28.4913 20.9204 27.7898 21.6219 26.9245 21.6219C26.0592 21.6219 25.3577 20.9204 25.3577 20.0551V5.60996L13.45 7.59457V22.562C13.45 23.4273 12.7485 24.1288 11.8832 24.1288C11.0179 24.1288 10.3164 23.4273 10.3164 22.562V6.26729C10.3164 5.50138 10.8701 4.84773 11.6256 4.72181L26.6669 2.21493C27.1212 2.13922 27.5858 2.26722 27.9372 2.56492Z" fill="#2F80ED"></path>
    <path fill-rule="evenodd" clip-rule="evenodd" d="M8.12204 20.3685C6.91059 20.3685 5.92852 21.3505 5.92852 22.562C5.92852 23.7734 6.91059 24.7555 8.12204 24.7555C9.33349 24.7555 10.3156 23.7734 10.3156 22.562C10.3156 21.3505 9.33349 20.3685 8.12204 20.3685ZM2.79492 22.562C2.79492 19.6199 5.17995 17.2349 8.12204 17.2349C11.0641 17.2349 13.4492 19.6199 13.4492 22.562C13.4492 25.5041 11.0641 27.8891 8.12204 27.8891C5.17995 27.8891 2.79492 25.5041 2.79492 22.562Z" fill="#2F80ED"></path>
    <path fill-rule="evenodd" clip-rule="evenodd" d="M23.1631 17.8615C21.9516 17.8615 20.9695 18.8436 20.9695 20.055C20.9695 21.2665 21.9516 22.2485 23.1631 22.2485C24.3745 22.2485 25.3566 21.2665 25.3566 20.055C25.3566 18.8436 24.3745 17.8615 23.1631 17.8615ZM17.8359 20.055C17.8359 17.1129 20.221 14.7279 23.1631 14.7279C26.1051 14.7279 28.4902 17.1129 28.4902 20.055C28.4902 22.9971 26.1051 25.3821 23.1631 25.3821C20.221 25.3821 17.8359 22.9971 17.8359 20.055Z" fill="#2F80ED"></path>
</svg>